<?xml version="1.0" encoding="UTF-8"?>
<!DOCTYPE svg PUBLIC "-//W3C//DTD SVG 1.1//EN" "http://www.w3.org/Graphics/SVG/1.1/DTD/svg11.dtd">
<!-- Creator: CorelDRAW 2019 (64-Bit) -->
<svg xmlns="http://www.w3.org/2000/svg" xml:space="preserve" width="201.083mm" height="111.125mm" version="1.1" style="shape-rendering:geometricPrecision; text-rendering:geometricPrecision; image-rendering:optimizeQuality; fill-rule:evenodd; clip-rule:evenodd"
viewBox="0 0 20108.32 11112.5"
 xmlns:xlink="http://www.w3.org/1999/xlink"
 xmlns:xodm="http://www.corel.com/coreldraw/odm/2003">
 <defs>
  <style type="text/css">
   <![CDATA[
    .str0 {stroke:#282829;stroke-width:7.62;stroke-miterlimit:22.9256}
    .fil0 {fill:#373435}
   ]]>
  </style>
 </defs>
 <g id="Layer_x0020_1">
  <metadata id="CorelCorpID_0Corel-Layer"/>
  <path class="fil0 str0" d="M12226.56 3842.91c332.15,-179.52 570.4,-404.07 714.73,-671.81 145.92,-272.64 218.86,-570.24 218.86,-896.64 0,-184.32 -28.79,-366.71 -86.38,-549.11 -59.54,-182.4 -147.85,-353.27 -270.73,-516.48 -120.96,-163.19 -276.48,-311.04 -464.63,-445.43 -186.24,-132.48 -407.04,-239.99 -662.4,-322.56 -341.75,-113.29 -791.04,-168.96 -1349.74,-168.96l-2615.03 0 0 3159.34 0 429.12 0 722.88 1382.39 0 981.11 0c291.84,0 537.61,13.43 735.36,42.23 197.76,28.79 362.88,71.03 493.43,132.46 201.6,90.25 343.68,211.22 428.15,366.74 84.49,155.52 126.73,335.99 126.73,537.59 0,236.17 -53.76,445.43 -159.37,625.91 -107.52,182.4 -299.51,326.41 -575.97,430.09 -149.77,55.67 -332.17,97.91 -551.06,126.71 -218.87,28.81 -485.76,42.25 -800.63,42.25 -686.71,0 -1373.43,0 -2060.14,0l0 4066.51 1382.39 0 0 -2914.54 946.55 0 2048.64 2914.54 1658.86 0 -2255.99 -3116.14c608.64,-176.63 1057.91,-447.36 1347.83,-812.15 289.92,-366.72 435.84,-810.24 435.84,-1334.39 0,-503.03 -119.04,-919.66 -359.05,-1251.82 -175.65,-241.71 -405.81,-441.23 -689.75,-596.34zm-1892.62 -472.15c374.4,0 652.79,-38.38 837.11,-113.26 205.44,-86.4 351.36,-205.44 439.69,-357.13 88.3,-151.68 132.47,-322.55 132.47,-514.55 0,-197.77 -49.92,-376.33 -151.69,-531.84 -101.74,-155.52 -272.62,-270.71 -516.45,-345.58 -101.77,-30.74 -218.89,-51.85 -353.29,-65.3 -134.41,-13.43 -301.43,-19.18 -499.19,-19.18l-1128.96 0 0 1946.84 1240.31 0z"/>
 </g>
</svg>
